<svg width="239" height="110" viewBox="0 0 239 110" fill="none" xmlns="http://www.w3.org/2000/svg"><path d="M201.357 30.6433L231.357 60.6433C233.457 62.7433 231.97 66.3333 229 66.3333H225.667V86.3333C225.667 88.9855 224.613 91.529 222.738 93.4044C220.862 95.2798 218.319 96.3333 215.667 96.3333H212.333V73C212.334 70.4493 211.359 67.995 209.609 66.1391C207.859 64.2833 205.466 63.1663 202.92 63.0167L202.333 63H195.667C193.015 63 190.471 64.0536 188.596 65.9289C186.72 67.8043 185.667 70.3478 185.667 73V96.3333H182.333C179.681 96.3333 177.138 95.2798 175.262 93.4044C173.387 91.529 172.333 88.9855 172.333 86.3333V66.3333H169C166.033 66.3333 164.543 62.7433 166.643 60.6433L196.643 30.6433C197.268 30.0184 198.116 29.6674 199 29.6674C199.884 29.6674 200.732 30.0184 201.357 30.6433ZM202.333 69.6667C203.217 69.6667 204.065 70.0179 204.69 70.643C205.316 71.2681 205.667 72.116 205.667 73V96.3333H192.333V73C192.333 72.1836 192.633 71.3955 193.176 70.7854C193.718 70.1753 194.466 69.7855 195.277 69.69L195.667 69.6667H202.333Z" fill="#223265"/><path fill-rule="evenodd" clip-rule="evenodd" d="M22.675 42C23.1828 38.474 24.7545 35.1869 27.1803 32.578C29.606 29.9691 32.7702 28.1626 36.25 27.4V35.75C36.25 36.7446 36.6451 37.6984 37.3484 38.4016C38.0516 39.1049 39.0054 39.5 40 39.5C40.9946 39.5 41.9484 39.1049 42.6516 38.4016C43.3549 37.6984 43.75 36.7446 43.75 35.75V27.4C47.2298 28.1626 50.394 29.9691 52.8197 32.578C55.2455 35.1869 56.8172 38.474 57.325 42H58.75C59.7446 42 60.6984 42.3951 61.4016 43.0983C62.1049 43.8016 62.5 44.7554 62.5 45.75C62.5 46.7446 62.1049 47.6984 61.4016 48.4016C60.6984 49.1049 59.7446 49.5 58.75 49.5H57.5C57.5 54.1413 55.6563 58.5925 52.3744 61.8744C49.0925 65.1563 44.6413 67 40 67C35.3587 67 30.9075 65.1563 27.6256 61.8744C24.3437 58.5925 22.5 54.1413 22.5 49.5H21.25C20.2554 49.5 19.3016 49.1049 18.5983 48.4016C17.8951 47.6984 17.5 46.7446 17.5 45.75C17.5 44.7554 17.8951 43.8016 18.5983 43.0983C19.3016 42.3951 20.2554 42 21.25 42H22.675ZM40 59.5C37.3478 59.5 34.8043 58.4464 32.9289 56.5711C31.0536 54.6957 30 52.1522 30 49.5H50C50 52.1522 48.9464 54.6957 47.0711 56.5711C45.1957 58.4464 42.6522 59.5 40 59.5ZM12.5 89.5C12.5 88.48 13.6 85.455 19.1 82.205C19.4672 81.9888 19.8389 81.7804 20.215 81.58L25.05 94.5H17.5C16.1739 94.5 14.9021 93.9732 13.9645 93.0355C13.0268 92.0979 12.5 90.8261 12.5 89.5ZM33.07 94.5L27.175 78.79C31.3442 77.5916 35.662 76.9889 40 77C44.65 77 49 77.675 52.825 78.785L46.935 94.5H33.07ZM54.945 94.5H62.5C63.8261 94.5 65.0979 93.9732 66.0355 93.0355C66.9732 92.0979 67.5 90.8261 67.5 89.5C67.5 88.48 66.4 85.455 60.9 82.205C60.5328 81.9888 60.1611 81.7804 59.785 81.58L54.945 94.5ZM40 69.5C20.75 69.5 5 79.5 5 89.5C5 92.8152 6.31696 95.9946 8.66117 98.3388C11.0054 100.683 14.1848 102 17.5 102H62.5C65.8152 102 68.9946 100.683 71.3388 98.3388C73.683 95.9946 75 92.8152 75 89.5C75 79.5 59.25 69.5 40 69.5Z" fill="#FFC107"/><g clip-path="url(#clip0_122_2)"><path d="M151.759 47.9857L163.05 42.9218L157.986 31.631" stroke="#223265" stroke-width="4" stroke-linecap="round" stroke-linejoin="round"/><path d="M87.3603 64.6625C89.0953 65.3231 90.4969 66.6459 91.2566 68.3398C92.0163 70.0338 92.072 71.9602 91.4114 73.6952C90.7508 75.4302 89.4281 76.8317 87.7341 77.5915C86.0402 78.3512 84.1138 78.4069 82.3788 77.7463C80.6438 77.0857 79.2422 75.7629 78.4825 74.069C77.7228 72.375 77.6671 70.4487 78.3277 68.7137C78.9883 66.9786 80.311 65.5771 82.005 64.8174C83.6989 64.0576 85.6253 64.0019 87.3603 64.6625Z" stroke="#223265" stroke-width="4" stroke-linejoin="round"/><path d="M91.4116 73.6952L104.495 78.6767C106.23 79.3373 108.157 79.2816 109.851 78.5219C111.545 77.7622 112.867 76.3606 113.528 74.6256L127.85 37.0098C128.51 35.2748 129.833 33.8733 131.527 33.1136C133.221 32.3538 135.148 32.2981 136.883 32.9587L163.05 42.9218" stroke="#223265" stroke-width="4" stroke-linecap="round" stroke-linejoin="round"/></g><defs><clipPath id="clip0_122_2"><rect width="84" height="84" fill="white" transform="matrix(0.934553 0.355823 0.355823 -0.934553 66.8042 79.3066)"/></clipPath></defs></svg>